<?xml version="1.0" encoding="utf-8"?>
<!-- Generator: Adobe Illustrator 17.0.0, SVG Export Plug-In . SVG Version: 6.00 Build 0)  -->
<!DOCTYPE svg PUBLIC "-//W3C//DTD SVG 1.1//EN" "http://www.w3.org/Graphics/SVG/1.1/DTD/svg11.dtd">
<svg version="1.1" id="Layer_1" xmlns="http://www.w3.org/2000/svg" xmlns:xlink="http://www.w3.org/1999/xlink" x="0px" y="0px"
	 width="204.44px" height="204.44px" viewBox="0 0 204.44 204.44" enable-background="new 0 0 204.44 204.44" xml:space="preserve">
<path fill="#000000" d="M204.444,102.596c-0.054,0.332-0.151,0.664-0.157,0.997c-0.1,6.078-0.859,12.082-1.974,18.051
	c-0.143,0.763-0.482,0.942-1.195,0.959c-3.045,0.073-6.089,0.21-9.134,0.301c-0.508,0.015-0.735,0.166-0.865,0.697
	c-2.176,8.897-5.675,17.264-10.202,25.21c-0.318,0.559-0.251,0.85,0.181,1.298c2.177,2.254,4.311,4.55,6.577,6.957
	c-7.502,11.503-17.228,21.321-28.997,29.249c-2.527-2.366-5.034-4.712-7.433-6.958c-4.063,2.047-7.963,4.197-12.017,6.001
	c-4.025,1.791-8.205,3.232-12.402,4.86c0,3.205,0,6.647,0,10.207c-16.334,4.019-32.719,4.008-49.196,0.036
	c0-2.063-0.003-4.091,0.001-6.119c0.002-1.176-0.009-2.353,0.032-3.527c0.019-0.556-0.181-0.775-0.72-0.948
	c-7.864-2.525-15.449-5.692-22.563-9.926c-0.394-0.234-0.788-0.468-1.194-0.709c-2.463,2.366-4.906,4.714-7.45,7.157
	c-1.45-1.033-2.911-2.033-4.329-3.091c-7.623-5.691-14.372-12.278-20.146-19.841c-1.742-2.281-3.324-4.684-5.004-7.014
	c-0.355-0.492-0.212-0.771,0.176-1.145c2.13-2.055,4.236-4.134,6.349-6.207c0.142-0.139,0.274-0.288,0.396-0.417
	c-1.168-2.238-2.379-4.416-3.46-6.657c-2.985-6.188-5.483-12.56-7.04-19.271c-0.126-0.543-0.381-0.718-0.934-0.732
	c-2.902-0.073-5.802-0.209-8.704-0.276c-0.665-0.015-1.037-0.139-1.129-0.887c-0.526-4.3-1.152-8.588-1.614-12.894
	c-0.241-2.245-0.315-4.519-0.293-6.779C0.131,88.134,2.46,75.511,7.359,63.39c5.888-14.568,14.658-27.137,26.276-37.7
	c8.878-8.072,18.878-14.39,29.994-18.944c6.796-2.784,13.807-4.797,21.029-6.084c7.474-1.332,15.017-1.761,22.586-1.377
	c16.25,0.822,31.469,5.265,45.585,13.373c12.896,7.407,23.69,17.174,32.364,29.252c9.07,12.628,14.942,26.623,17.636,41.936
	c0.887,5.041,1.39,10.127,1.454,15.252c0.004,0.304,0.104,0.606,0.16,0.909C204.444,100.87,204.444,101.733,204.444,102.596z
	 M176.161,100.297c-0.394-42.745-37.791-76.784-81.046-72.693c-38.023,3.596-69.468,37.002-66.779,78.74
	c2.553,39.63,37.629,72.636,80.896,68.626C147.432,171.43,176.871,138.539,176.161,100.297z M25.411,99.827
	c0.729-20.211,7.86-37.667,21.951-52.066C61.471,33.344,78.735,25.572,98.9,24.675c18.545-0.826,35.358,4.447,49.984,15.869
	c19.199,14.993,29.021,34.934,30.118,59.26c7.478,0,14.958,0,22.439,0c0.013-28.085-14.199-63.844-49.679-84.506
	C118.217-4.236,75.662-2.46,43.479,21.271C27.53,33.031,16.037,48.244,9.052,66.807C5.056,77.428,3.045,88.433,2.86,99.827
	C10.439,99.827,17.898,99.827,25.411,99.827z"/>
<path fill="#000000" d="M143.956,118.755c-3.317-5.284-6.641-10.563-9.95-15.852c-3.62-5.788-7.226-11.585-10.838-17.379
	c-0.575-0.923-1.203-1.818-1.704-2.78c-0.391-0.751-0.953-1.13-1.734-1.379c-2.116-0.674-4.211-1.417-6.316-2.125
	c-0.259-0.087-0.535-0.125-0.918-0.011c0.504,0.509,1.019,1.009,1.512,1.529c2.172,2.289,4.358,4.566,6.502,6.881
	c2.566,2.771,3.577,6.176,3.96,9.844c0.362,3.467,0.168,6.881-0.875,10.213c-0.935,2.99-2.324,5.675-5.354,7.103
	c-1.985,0.936-4.07,1.52-6.266,1.521c-2.699,0.001-5.398-0.145-8.097-0.162c-4.454-0.03-8.911-0.099-13.361,0.025
	c-2.813,0.078-4.812-1.15-6.49-3.215c-3.243-3.991-4.218-8.656-4.063-13.65c0.082-2.645,0.225-5.329,1.468-7.71
	c1.331-2.549,2.821-5.031,4.438-7.408c1.969-2.893,4.211-5.583,6.902-7.867c2.262-1.92,4.717-3.522,7.734-3.76
	c2.012-0.159,4.098-0.164,6.074,0.192c3.11,0.561,6.154,1.486,9.226,2.253c0.242,0.06,0.49,0.094,0.909,0.173
	c-2.26-4.117-4.891-7.821-7.201-11.719c-2.338-3.946-4.815-7.809-7.311-11.838c-13.972,22.484-27.846,44.81-41.719,67.136
	c-0.062-0.037-0.124-0.073-0.186-0.11c0.828-1.395,1.656-2.79,2.485-4.184c0.498-0.837,0.952-1.705,1.511-2.499
	c0.359-0.51,0.307-0.823-0.109-1.251c-0.612-0.63-0.679-1.275-0.161-2.111c1.472-2.379,2.866-4.809,4.206-7.264
	c0.23-0.421,0.166-1.1,0.028-1.602c-0.25-0.909-0.126-1.649,0.342-2.484c3.332-5.947,6.604-11.927,9.905-17.892
	c2.799-5.058,5.617-10.105,8.416-15.164c2.042-3.69,4.062-7.393,6.098-11.086c1.377-2.498,2.743-5.003,4.171-7.472
	c0.238-0.412,0.733-0.707,1.163-0.967c0.595-0.358,0.865-0.779,0.847-1.516c-0.043-1.838-0.015-3.68,0.053-5.518
	c0.042-1.134,0.556-2.097,1.445-2.813c2.075-1.671,4.456-0.025,4.917,2.089c0.258,1.184,0.166,2.449,0.197,3.678
	c0.027,1.092-0.002,2.186,0.015,3.278c0.004,0.245,0.02,0.634,0.162,0.71c1.502,0.8,1.929,2.382,2.671,3.698
	c2.605,4.617,5.119,9.286,7.68,13.929c2.877,5.215,5.762,10.427,8.667,15.626c0.176,0.315,0.525,0.613,0.862,0.744
	c4.014,1.563,8.047,3.079,12.062,4.64c1.294,0.503,2.57,1.059,3.819,1.665c1.024,0.496,1.585,2.728,0.935,3.641
	c-0.517,0.725-1.294,0.684-2.025,0.425c-1.531-0.543-3.039-1.152-4.564-1.713c-2.345-0.862-4.696-1.706-7.202-2.417
	c0.415,0.78,0.82,1.567,1.248,2.34c1.937,3.492,3.858,6.993,5.84,10.459c0.426,0.745,0.324,1.423,0.089,2.115
	c-0.261,0.769-0.118,1.391,0.294,2.078c1.364,2.272,2.616,4.612,4.016,6.861c0.542,0.871,0.314,1.507-0.242,2.112
	c-0.405,0.44-0.334,0.734-0.055,1.19c1.355,2.217,2.672,4.459,4.002,6.691C144.042,118.702,143.999,118.728,143.956,118.755z
	 M141.579,88.007c0.297-1.757-0.065-2.252-1.95-2.94c-1.929-0.703-3.849-1.43-5.775-2.142c-6.112-2.262-12.21-4.564-18.343-6.767
	c-3.483-1.251-7.059-2.211-10.783-2.406c-1.455-0.076-2.936-0.138-4.374,0.044c-3.58,0.454-6.209,2.653-8.637,5.093
	c-2.634,2.647-4.801,5.671-6.808,8.811c-0.406,0.635-0.776,1.292-1.231,2.052c12.409,0,24.628,0,36.922,0
	c-0.085-0.195-0.106-0.316-0.176-0.391c-2.291-2.488-4.563-4.995-6.893-7.446c-1.145-1.204-2.412-2.291-3.59-3.466
	c-0.231-0.23-0.303-0.62-0.448-0.936c0.358-0.102,0.734-0.326,1.072-0.28c0.701,0.097,1.395,0.299,2.069,0.527
	c3.439,1.165,6.88,2.323,10.301,3.539c5.048,1.795,10.079,3.639,15.118,5.458C139.218,87.179,140.389,87.586,141.579,88.007z
	 M112.453,111.598c0,0.643-0.037,1.186,0.021,1.719c0.019,0.177,0.274,0.462,0.43,0.468c1.074,0.041,2.15,0.022,3.244,0.022
	c0-0.805,0-1.499,0-2.209C114.908,111.598,113.746,111.598,112.453,111.598z M111.14,111.555c-0.746,0-1.43,0.001-2.114,0
	c-1.726-0.002-1.802,0.071-1.571,1.768c0.025,0.184,0.266,0.479,0.416,0.484c1.08,0.042,2.163,0.022,3.269,0.022
	C111.14,113.051,111.14,112.369,111.14,111.555z M101.124,108.131c-1.112,0-2.193-0.016-3.273,0.019
	c-0.144,0.005-0.387,0.252-0.4,0.403c-0.048,0.556-0.019,1.118-0.019,1.673c1.302,0,2.484,0,3.692,0
	C101.124,109.514,101.124,108.865,101.124,108.131z M101.086,113.701c0-0.774,0-1.443,0-2.085c-1.238,0-2.403,0-3.598,0
	c0,0.73,0,1.397,0,2.085C98.72,113.701,99.884,113.701,101.086,113.701z M107.501,110.222c1.239,0,2.417,0,3.628,0
	c0-0.714,0-1.361,0-2.09c-0.645,0-1.268,0.001-1.89,0C107.276,108.13,107.276,108.13,107.501,110.222z M91.091,108.134
	c-1.099,0-2.131-0.02-3.161,0.019c-0.175,0.007-0.47,0.253-0.488,0.413c-0.061,0.553-0.023,1.117-0.023,1.672
	c1.298,0,2.461,0,3.672,0C91.091,109.541,91.091,108.892,91.091,108.134z M91.075,113.704c0-0.767,0-1.436,0-2.092
	c-1.234,0-2.398,0-3.617,0c0,0.725,0,1.392,0,2.092C88.679,113.704,89.842,113.704,91.075,113.704z M102.475,108.167
	c0,0.747,0,1.397,0,2.071c1.221,0,2.408,0,3.595,0c0-0.717,0-1.383,0-2.071C104.856,108.167,103.719,108.167,102.475,108.167z
	 M116.114,110.246c0-0.714,0-1.363,0-2.053c-1.225,0-2.408,0-3.625,0c0,0.716,0,1.364,0,2.053
	C113.695,110.246,114.858,110.246,116.114,110.246z M106.078,113.715c0-0.751,0-1.421,0-2.155c-1.096,0-2.127-0.02-3.155,0.021
	c-0.165,0.007-0.44,0.274-0.458,0.442c-0.059,0.552-0.022,1.114-0.022,1.692C103.728,113.715,104.87,113.715,106.078,113.715z
	 M96.094,111.636c-1.256,0-2.433,0-3.625,0c0,0.729,0,1.377,0,2.053c1.226,0,2.406,0,3.625,0
	C96.094,112.989,96.094,112.339,96.094,111.636z M92.478,108.176c0,0.757,0,1.404,0,2.046c1.239,0,2.422,0,3.601,0
	c0-0.715,0-1.361,0-2.046C94.864,108.176,93.705,108.176,92.478,108.176z M117.475,106.831c1.275,0,2.458,0,3.626,0
	c0-0.722,0-1.41,0-2.044c-1.257,0-2.434,0-3.626,0C117.475,105.488,117.475,106.111,117.475,106.831z M117.491,108.179
	c0,0.732,0,1.379,0,2.163c0.523,0,1.002-0.001,1.482,0c1.987,0.004,1.987,0.004,2.085-1.954c0.003-0.05-0.044-0.103-0.092-0.209
	C119.858,108.179,118.725,108.179,117.491,108.179z M101.087,93.152c0-0.761,0-1.428,0-2.086c-1.234,0-2.396,0-3.604,0
	c0,0.724,0,1.391,0,2.086C98.709,93.152,99.876,93.152,101.087,93.152z M97.464,96.59c1.268,0,2.438,0,3.639,0
	c0-0.717,0-1.389,0-2.044c-1.246,0-2.433,0-3.639,0C97.464,95.255,97.464,95.88,97.464,96.59z M101.103,100.02
	c0-0.769,0-1.417,0-2.092c-1.239,0-2.42,0-3.675,0c0,0.554-0.056,1.046,0.025,1.513c0.037,0.216,0.331,0.543,0.523,0.553
	C99.001,100.049,100.031,100.02,101.103,100.02z M111.109,97.921c-1.235,0-2.417,0-3.673,0c0,0.576-0.048,1.094,0.025,1.594
	c0.027,0.188,0.327,0.47,0.513,0.479c1.026,0.047,2.055,0.022,3.135,0.022C111.109,99.289,111.109,98.618,111.109,97.921z
	 M111.124,101.353c-1.262,0-2.426,0-3.681,0c0,0.581-0.031,1.121,0.019,1.654c0.015,0.154,0.26,0.403,0.406,0.408
	c1.077,0.035,2.155,0.019,3.256,0.019C111.124,102.694,111.124,102.072,111.124,101.353z M91.107,94.549
	c-0.141-0.04-0.196-0.068-0.251-0.069c-0.66-0.007-1.319-0.014-1.979-0.014c-1.601,0-1.665,0.057-1.445,1.625
	c0.028,0.198,0.311,0.506,0.488,0.514c1.05,0.049,2.103,0.024,3.187,0.024C91.107,95.886,91.107,95.237,91.107,94.549z
	 M111.153,106.815c0-0.603,0.03-1.142-0.019-1.674c-0.014-0.151-0.255-0.396-0.399-0.4c-1.072-0.034-2.145-0.019-3.252-0.019
	c0,0.751,0,1.395,0,2.093C108.687,106.815,109.844,106.815,111.153,106.815z M91.082,93.14c0-0.745,0-1.413,0-2.127
	c-0.655,0-1.253,0.001-1.85,0c-1.945-0.003-1.946-0.003-1.785,1.941c0.004,0.05,0.055,0.096,0.11,0.186
	C88.692,93.14,89.853,93.14,91.082,93.14z M112.448,101.327c0,0.593-0.038,1.108,0.02,1.613c0.021,0.18,0.269,0.47,0.422,0.477
	c1.052,0.042,2.106,0.022,3.189,0.022c0-0.769,0-1.433,0-2.111C114.86,101.327,113.715,101.327,112.448,101.327z M116.131,104.776
	c-1.263,0-2.447,0-3.624,0c0,0.715,0,1.362,0,2.021c1.242,0,2.421,0,3.624,0C116.131,106.096,116.131,105.467,116.131,104.776z
	 M106.093,104.781c-1.232,0-2.412,0-3.603,0c0,0.719,0,1.365,0,2.049c1.22,0,2.384,0,3.603,0
	C106.093,106.146,106.093,105.496,106.093,104.781z M87.47,104.726c0,0.768,0,1.411,0,2.071c1.239,0,2.416,0,3.642,0
	c0-0.552,0.051-1.042-0.023-1.512c-0.033-0.207-0.314-0.525-0.495-0.534C89.577,104.699,88.557,104.726,87.47,104.726z
	 M92.49,91.037c0,0.75,0,1.416,0,2.085c1.228,0,2.387,0,3.583,0c0-0.727,0-1.393,0-2.085C94.874,91.037,93.735,91.037,92.49,91.037z
	 M86.121,99.965c0-0.566,0.046-1.081-0.023-1.58c-0.027-0.194-0.307-0.494-0.482-0.502c-1.046-0.047-2.095-0.023-3.139-0.023
	c0,0.774,0,1.44,0,2.106C83.711,99.965,84.872,99.965,86.121,99.965z M96.084,94.469c-1.093,0-2.119-0.024-3.141,0.023
	c-0.177,0.008-0.463,0.301-0.488,0.489c-0.067,0.522-0.023,1.059-0.023,1.592c1.289,0,2.446,0,3.652,0
	C96.084,95.866,96.084,95.22,96.084,94.469z M106.078,91.093c-1.229,0-2.409,0-3.637,0c0,0.398,0,0.712,0,1.025
	c0,0.332,0,0.663,0,1.064c0.732,0,1.332,0,1.933,0C106.302,93.183,106.302,93.184,106.078,91.093z M96.126,106.821
	c0-0.524,0.06-0.989-0.023-1.427c-0.047-0.248-0.321-0.631-0.511-0.642c-1.036-0.063-2.078-0.03-3.111-0.03c0,0.766,0,1.411,0,2.1
	C93.696,106.821,94.854,106.821,96.126,106.821z M117.451,94.515c0,0.481-0.113,0.905,0.029,1.21
	c0.166,0.356,0.528,0.823,0.852,0.863c0.924,0.116,1.873,0.041,2.809,0.041c0-0.775,0-1.445,0-2.114
	C119.902,94.515,118.735,94.515,117.451,94.515z M82.445,96.623c1.134,0,2.191,0.016,3.245-0.019
	c0.146-0.005,0.392-0.25,0.406-0.401c0.049-0.555,0.019-1.117,0.019-1.672c-1.307,0-2.468,0-3.67,0
	C82.445,95.222,82.445,95.843,82.445,96.623z M116.046,99.969c0.241-1.33-0.029-2.042-0.837-2.095
	c-0.878-0.058-1.762-0.013-2.695-0.013c0,0.739,0,1.404,0,2.108C113.741,99.969,114.898,99.969,116.046,99.969z M121.013,93.13
	c0.2-1.993,0.106-2.102-1.763-2.107c-1.869-0.004-1.87-0.004-1.791,1.868c0.003,0.079,0.046,0.156,0.071,0.238
	C118.705,93.13,119.862,93.13,121.013,93.13z M106.135,103.446c0-0.645,0.017-1.182-0.012-1.717
	c-0.007-0.133-0.13-0.323-0.249-0.377c-0.881-0.396-2.706,0.119-3.25,0.894c-0.364,0.518-0.226,1.172,0.277,1.189
	C103.949,103.47,104.998,103.446,106.135,103.446z M86.033,101.364c-1.207,0-2.388,0-3.566,0c0,0.701,0,1.342,0,1.968
	C84.977,103.872,86.445,102.861,86.033,101.364z M106.029,94.472c-1.037,0-2.091-0.02-3.143,0.022
	c-0.154,0.006-0.392,0.292-0.423,0.476c-0.066,0.389-0.058,0.803-0.002,1.195c0.024,0.166,0.237,0.423,0.379,0.433
	c0.625,0.045,1.267,0.089,1.882-0.006C105.548,96.467,106.194,95.39,106.029,94.472z M86.088,91.118
	c-2.552-0.424-3.286,0.021-3.321,1.99c1.096,0,2.19,0,3.321,0C86.088,92.41,86.088,91.785,86.088,91.118z M86.083,108.134
	c-0.728,0-1.376-0.096-1.974,0.036c-0.361,0.08-0.956,0.614-0.906,0.77c0.166,0.516,0.481,1.177,0.918,1.364
	c0.549,0.235,1.274,0.057,1.961,0.057C86.083,109.553,86.083,108.9,86.083,108.134z M87.416,97.905c0,0.496,0.03,0.949-0.007,1.397
	c-0.049,0.584,0.211,0.779,0.755,0.719c1.285-0.141,1.752-1.264,2.748-2.116C89.608,97.905,88.565,97.905,87.416,97.905z
	 M110.598,91.012c-0.531,0-0.957,0-1.384,0c-1.978-0.003-1.978-0.003-1.733,1.991c0.003,0.026,0.029,0.049,0.044,0.073
	C108.615,93.292,109.896,92.472,110.598,91.012z M97.675,106.809c1.281,0,2.364,0,3.473,0c0-0.458,0.033-0.858-0.011-1.248
	c-0.032-0.281-0.116-0.746-0.267-0.785c-0.318-0.083-0.78-0.055-1.03,0.132C99.129,105.439,98.495,106.075,97.675,106.809z
	 M116.112,93.083c0-0.697,0-1.342,0-1.996c-0.957,0-1.87,0-2.821,0C114.059,92.605,114.969,93.257,116.112,93.083z M117.45,101.406
	c0,0.519-0.03,1.056,0.018,1.587c0.014,0.159,0.241,0.417,0.382,0.425c0.722,0.043,1.448,0.02,2.224,0.02
	C119.489,101.937,118.579,101.236,117.45,101.406z M117.473,113.831c1.192-0.472,2.15-1.071,2.803-2.21c-1.009,0-1.9,0-2.803,0
	C117.473,112.369,117.473,113.043,117.473,113.831z M96.069,100.018c0-0.781,0-1.447,0-2.1c-0.877,0-1.686,0-2.496,0
	C94.287,98.755,94.541,100.085,96.069,100.018z M94.625,103.315c-0.829-0.709-1.162-1.645-2.132-2.072
	C92.387,103.614,92.061,103.595,94.625,103.315z M108.829,96.534c0.895,0,1.572,0,2.252,0c0-0.618,0-1.245,0-2.08
	C110.289,95.185,109.645,95.781,108.829,96.534z M97.436,101.361c0,0.397-0.033,0.71,0.011,1.012
	c0.031,0.209,0.149,0.555,0.262,0.569c0.206,0.026,0.48-0.101,0.649-0.251c0.433-0.385,0.824-0.817,1.331-1.331
	C98.875,101.361,98.211,101.361,97.436,101.361z M91.091,101.374c-0.777,0.731-1.374,1.292-2.154,2.025c0.907,0,1.514,0,2.154,0
	C91.091,102.773,91.091,102.192,91.091,101.374z M114.099,96.596c0.054-0.071,0.109-0.142,0.163-0.214
	c-0.534-0.6-1.068-1.199-1.749-1.964c0,0.929,0,1.54,0,2.178C113.088,96.596,113.594,96.596,114.099,96.596z M86.022,113.45
	c0.38-1.879,0.145-2.138-1.478-1.721C85.035,112.301,85.478,112.817,86.022,113.45z M123.238,99.956
	c0.073-2.128,0.073-2.128-0.723-1.972C122.319,99.939,122.381,100.109,123.238,99.956z M122.207,101.331
	c0.398,0.56,0.66,0.929,0.923,1.298c0.07-0.035,0.141-0.071,0.211-0.106c0-0.405,0-0.81,0-1.256
	C123.027,101.284,122.778,101.298,122.207,101.331z"/>
<path fill="#000000" d="M126.054,136.77c0.741,0.42,1.401,0.794,2.04,1.156c0.009,0.092,0.036,0.157,0.016,0.198
	c-0.868,1.778-0.914,1.805-2.545,0.645c-0.707-0.502-1.318-0.66-2.252-0.443c-2.571,0.597-5.083,0.374-6.859-1.894
	c-0.642-0.82-1.146-1.889-1.314-2.91c-0.429-2.606-0.282-5.172,1.922-7.085c2.038-1.769,4.429-1.934,6.845-1.078
	c2.349,0.833,3.494,2.723,3.785,5.151C127.958,132.741,127.646,134.834,126.054,136.77z M122.4,136.144
	c-0.578-0.31-1.042-0.559-1.553-0.833c0.253-0.47,0.489-0.907,0.747-1.387c0.683,0.373,1.32,0.647,1.871,1.042
	c0.561,0.403,0.8,0.168,1.034-0.321c0.753-1.574,0.773-3.217,0.356-4.857c-0.479-1.882-1.756-2.744-3.753-2.671
	c-1.733,0.064-3.036,1.088-3.28,2.91c-0.171,1.276-0.152,2.636,0.095,3.898C118.314,135.96,120.761,136.996,122.4,136.144z"/>
<path fill="#000000" d="M84.025,138.579c-4.268,0.058-6.784-3.202-6.394-7.638c0.109-1.238,0.438-2.397,1.149-3.448
	c1.618-2.392,3.993-2.872,6.584-2.459c2.437,0.388,4.027,1.891,4.733,4.309c0.473,1.618,0.444,3.234,0.038,4.831
	C89.436,136.926,87.167,138.525,84.025,138.579z M88.001,131.83c-0.08-0.027-0.16-0.055-0.24-0.082
	c-0.019-0.4-0.018-0.803-0.061-1.201c-0.226-2.12-1.493-3.361-3.477-3.422c-2.146-0.066-3.531,1.047-3.811,3.225
	c-0.13,1.007-0.141,2.067,0.024,3.065c0.239,1.444,1.105,2.521,2.586,2.871c1.49,0.353,2.969,0.139,3.822-1.233
	C87.433,134.105,87.629,132.913,88.001,131.83z"/>
<path fill="#000000" d="M97.29,134.164c0.812-0.088,1.573-0.171,2.315-0.252c0.798,2.233,1.87,2.851,4.095,2.422
	c0.921-0.178,1.591-0.854,1.622-1.637c0.033-0.836-0.422-1.372-1.436-1.656c-1.102-0.309-2.218-0.569-3.309-0.912
	c-1.989-0.626-3.152-2.338-2.854-4.126c0.25-1.505,1.652-2.833,3.465-2.97c1.23-0.093,2.52,0.012,3.722,0.29
	c1.578,0.365,2.663,2.054,2.458,3.503c-0.673,0.03-1.357,0.093-2.037,0.07c-0.175-0.006-0.414-0.251-0.498-0.441
	c-0.649-1.473-3.261-1.998-4.41-0.868c-0.503,0.495-0.422,1.464,0.246,1.746c0.991,0.418,2.043,0.694,3.068,1.032
	c0.623,0.205,1.263,0.372,1.863,0.63c1.565,0.674,2.378,1.928,2.307,3.594c-0.071,1.663-0.874,2.975-2.533,3.542
	c-2.106,0.719-4.204,0.778-6.187-0.41C98.054,137.042,97.3,135.601,97.29,134.164z"/>
<path fill="#000000" d="M70.394,128.724c-0.811,0.188-1.581,0.367-2.347,0.545c-0.078-0.11-0.133-0.173-0.173-0.245
	c-0.911-1.643-1.781-2.111-3.455-1.854c-1.36,0.208-2.396,1.181-2.574,2.79c-0.143,1.292-0.105,2.641,0.101,3.925
	c0.261,1.624,1.396,2.477,2.921,2.511c1.57,0.035,2.515-0.711,3.013-2.374c0.032-0.107,0.097-0.204,0.185-0.382
	c0.778,0.247,1.55,0.492,2.31,0.733c-0.187,1.936-2.064,3.89-4.078,4.117c-2.685,0.303-4.767-0.059-6.407-2.904
	c-1.547-2.683-1.432-8.319,2.676-10.132c2.689-1.187,6.557-0.58,7.724,2.806C70.334,128.388,70.35,128.524,70.394,128.724z"/>
<path fill="#000000" d="M146.156,134.385c-0.533,2.347-2.432,3.941-4.538,4.157c-4.886,0.502-7.333-3.464-6.854-7.679
	c0.296-2.607,1.402-4.647,4-5.612c2.796-1.038,5.88,0.08,7.061,2.551c0.12,0.252,0.199,0.523,0.334,0.888
	c-0.855,0.205-1.642,0.394-2.406,0.577c-1.095-2.038-2.406-2.598-4.317-1.907c-0.943,0.341-1.459,1.067-1.735,1.987
	c-0.464,1.549-0.426,3.123-0.049,4.666c0.383,1.569,1.428,2.349,2.94,2.382c1.516,0.033,2.445-0.655,2.987-2.215
	c0.055-0.158,0.087-0.324,0.135-0.508c0.247,0.055,0.468,0.091,0.68,0.155C144.968,134.002,145.537,134.188,146.156,134.385z"/>
<path fill="#000000" d="M117.51,156.271c0.497,0.297,0.927,0.555,1.434,0.859c-0.153,0.341-0.323,0.719-0.501,1.114
	c-0.163-0.021-0.3,0.002-0.377-0.055c-1.128-0.84-2.332-0.859-3.711-0.702c-3.015,0.343-4.971-1.703-5-4.92
	c-0.032-3.492,2.728-5.669,6.058-4.801c1.937,0.505,3.18,2.184,3.306,4.408C118.803,153.655,118.389,154.986,117.51,156.271z
	 M114.186,154.257c0.41,0.193,0.801,0.31,1.111,0.537c0.638,0.468,1.111,0.249,1.18-0.414c0.119-1.145,0.221-2.337,0.027-3.456
	c-0.2-1.151-1.152-1.696-2.353-1.737c-1.252-0.043-2.174,0.479-2.573,1.599c-0.445,1.249-0.472,2.536,0.062,3.777
	c0.523,1.215,1.754,1.731,3.165,1.278c-0.384-0.259-0.698-0.469-1.061-0.713C113.881,154.855,114.018,154.586,114.186,154.257z"/>
<path fill="#000000" d="M95.652,153.083c1.03,1.432,2.006,2.788,3.025,4.204c-1.405,0.3-2.461,0.166-3.086-1.193
	c-0.271-0.588-0.784-1.061-1.103-1.632c-0.546-0.978-1.368-1.229-2.523-1.054c0,1.289,0,2.591,0,3.942c-0.688,0-1.25,0-1.872,0
	c0-3.16,0-6.307,0-9.674c2.043,0.102,4.113,0.142,6.169,0.337c0.876,0.083,1.607,1.257,1.681,2.279
	c0.076,1.059-0.57,2.114-1.573,2.546C96.116,152.945,95.846,153.017,95.652,153.083z M91.976,149.231c0,0.964,0,1.78,0,2.582
	c1.04,0,2.036,0.055,3.021-0.019c0.675-0.05,1.019-0.492,1.018-1.23c-0.001-0.756-0.373-1.127-1.056-1.186
	C94.002,149.294,93.037,149.28,91.976,149.231z"/>
<path fill="#000000" d="M108.552,157.395c-0.644,0-1.163,0.066-1.651-0.03c-0.222-0.044-0.455-0.377-0.559-0.63
	c-0.621-1.515-0.609-1.52-2.221-1.518c-0.201,0-0.402-0.002-0.603-0.002c-1.737,0.001-1.759-0.008-2.391,1.592
	c-0.443,1.121-1.318,0.343-2.106,0.462c0.374-0.937,0.754-1.873,1.121-2.813c0.808-2.071,1.598-4.15,2.433-6.21
	c0.087-0.214,0.426-0.463,0.643-0.459c0.525,0.011,1.4,0.008,1.518,0.279C106.056,151.101,107.261,154.186,108.552,157.395z
	 M103.838,150.198c-0.092-0.008-0.184-0.015-0.276-0.023c-0.419,1.111-0.837,2.222-1.284,3.408c0.974,0,1.831,0,2.813,0
	C104.65,152.391,104.244,151.295,103.838,150.198z"/>
<path fill="#000000" d="M88.064,157.343c-0.656,0-1.22,0-1.826,0c0-3.201,0-6.346,0-9.54c0.615,0,1.201,0,1.826,0
	C88.064,150.982,88.064,154.128,88.064,157.343z"/>
<path fill="#000000" d="M110.334,138.33c0-0.826,0-1.562,0-2.355c0.79,0,1.541,0,2.337,0c0,0.779,0,1.54,0,2.355
	C111.908,138.33,111.153,138.33,110.334,138.33z"/>
<path fill="#000000" d="M132.381,138.341c-0.765,0-1.526,0-2.333,0c0-0.789,0-1.572,0-2.391c0.779,0,1.517,0,2.333,0
	C132.381,136.721,132.381,137.477,132.381,138.341z"/>
<path fill="#000000" d="M72.956,138.346c0-0.82,0-1.559,0-2.363c0.789,0,1.549,0,2.367,0c0,0.755,0,1.539,0,2.363
	C74.562,138.346,73.801,138.346,72.956,138.346z"/>
<path fill="#000000" d="M92.664,138.346c0-0.822,0-1.562,0-2.365c0.799,0,1.554,0,2.353,0c0,0.8,0,1.563,0,2.365
	C94.235,138.346,93.471,138.346,92.664,138.346z"/>
<path fill="#000000" d="M142.147,24.828c0.464-1.522,1.215-2.959,1.248-4.413c0.029-1.236,0.768-1.544,1.406-2.18
	c0.228,0.632,0.442,1.223,0.71,1.966c-0.315,0.279-0.745,0.628-1.135,1.017c-0.165,0.164-0.279,0.4-0.359,0.624
	c-0.522,1.45-1.022,2.908-1.544,4.358c-0.095,0.264-0.26,0.502-0.414,0.792c-1.799-0.913-3.513-1.898-5.317-2.67
	c-2.812-1.202-5.656-2.343-8.542-3.35c-2.499-0.871-5.082-1.497-7.612-2.284c-0.594-0.185-1.098-0.65-1.69-0.853
	c-0.472-0.162-1.012-0.147-1.523-0.165c-0.685-0.025-1.371-0.006-2.119-0.006c-0.277,1.077-0.765,2.039-2.004,2.282
	c-1.539,0.302-3.055,0.18-4.398-0.668c-1.129-0.712-1.366-1.796-0.706-3.272c0.426-0.951,1.059-1.809,1.599-2.709
	c0.12,0.033,0.241,0.066,0.361,0.1c-0.038,0.236-0.021,0.499-0.123,0.703c-0.318,0.633-0.734,1.221-1.012,1.87
	c-0.306,0.713-0.002,1.31,0.632,1.689c1.192,0.712,2.489,0.846,3.807,0.459c1.109-0.325,1.538-1.065,1.044-2.203
	c-0.506-1.165-0.057-2.001,0.602-3.133c0.229,1.057,0.414,1.907,0.627,2.891c0.402,0,0.91,0.1,1.351-0.031
	c0.367-0.109,0.693-0.453,0.964-0.758c0.234-0.263,0.367-0.616,0.606-1.038c0.503,0.78-0.633,2.105,1.106,2.067
	c-0.384-0.916-0.002-1.54,0.876-2.165c0,0.815,0.05,1.503-0.016,2.18c-0.051,0.515,0.022,0.8,0.59,0.903
	c0.895,0.162,1.778,0.391,2.858,0.635c-0.394-1.119-0.563-2.108,0.514-2.87c0.77,0.969,0.312,2.07,0.223,3.202
	c0.99,0.268,1.965,0.532,3.15,0.853c-0.474-1.176-0.481-2.136,0.52-2.916c0.75,1.032,0.24,2.131,0.163,3.245
	c0.595,0.217,1.169,0.426,1.875,0.682c-0.631-1.5,0.003-2.549,0.978-3.415c0.315-0.279,0.924-0.468,1.302-0.36
	c0.318,0.091,0.688,0.665,0.701,1.037c0.041,1.183-0.073,2.372-0.134,3.702c0.782,0.347,1.738,0.772,2.874,1.277
	c-0.24-1.251-0.012-2.206,1.319-2.901c-0.153,1.136-0.285,2.12-0.437,3.251c0.574,0.262,1.289,0.589,2.073,0.947
	c0.383-1.525,1.043-2.966,1.014-4.393c-0.026-1.279,0.667-1.671,1.316-2.324c0.262,0.655,0.483,1.207,0.743,1.854
	c-0.059,0.084-0.153,0.313-0.322,0.442c-1.517,1.158-1.3,3.013-1.835,4.562c-0.049,0.143,0.111,0.464,0.262,0.553
	C140.88,24.226,141.478,24.494,142.147,24.828z M132.076,19.09c0.069-0.046,0.138-0.092,0.207-0.139
	c-0.014-0.956-0.126-1.111-1.128-1.189C131.529,18.302,131.803,18.696,132.076,19.09z"/>
<path fill="#000000" d="M87.026,13.483c0.17,0.742,0.283,1.237,0.405,1.768c0.339,0,0.66,0,1.148,0
	c-0.79-0.844-0.623-1.579,0.069-2.42c0.325,0.873,0.62,1.664,0.947,2.543c0.764-0.091,1.578-0.188,2.632-0.313
	c-0.659-1.656-1.366-3.192-1.861-4.793c-0.199-0.642,0.066-1.427,0.126-2.238c0.643,0.455,1.166,0.68,1.457,1.077
	c0.217,0.297,0.288,0.872,0.154,1.22c-0.273,0.709-0.106,1.311,0.088,1.977c0.435,1.493,0.805,3.006,1.226,4.606
	c-1.382,0.171-2.54,0.334-3.703,0.444c-0.338,0.032-0.692-0.078-1.035-0.144c-1.247-0.24-2.138,0.77-3.28,0.927
	c-0.733,0.101-1.428,0.252-1.965-0.592c-0.566,1.17-1.585,1.428-2.627,1.647c-3.481,0.732-6.816,1.913-10.086,3.292
	c-0.075,0.031-0.141,0.083-0.2,0.119c-0.088,2.702-0.834,4.039-2.353,4.24c-1.239,0.164-2.619-0.192-2.779-0.768
	c0.134-0.024,0.264-0.069,0.394-0.068c1.974,0.019,3.763-1.826,3.584-3.788c-0.033-0.365-0.35-0.866-0.67-1.012
	c-1.03-0.472-0.952-1.371-1.089-2.208c0.065-0.06,0.13-0.12,0.195-0.18c0.609,0.595,1.219,1.19,1.882,1.838
	c0.933-0.186,1.704-1.562,1.186-2.459c-0.616-1.065-1.051-2.222-2.082-3.074c-0.42-0.347-0.275-1.376-0.393-2.132
	c0.798,0.206,1.431,0.37,2.222,0.574c-0.081,1.433,0.295,2.882,1.299,4.186c0.393-0.495,0.794-1.073,1.269-1.582
	c1.009-1.081,2.332-0.849,2.969,0.5c0.219,0.464,0.391,0.95,0.619,1.511c0.566-0.147,1.109-0.286,1.65-0.431
	c0.519-0.139,1.036-0.284,1.7-0.466c-0.793-0.845-1.6-1.618-0.799-2.986c0.429,0.668,0.811,1.275,1.207,1.873
	c0.199,0.301,0.517,0.864,0.619,0.829c0.482-0.163,1.042-0.397,1.317-0.787c0.298-0.423,0.312-1.046,0.511-1.822
	c0.196,0.408,0.353,0.638,0.419,0.892c0.261,1.003,0.438,1.091,1.425,0.916c1.089-0.193,1.955-0.512,1.784-1.888
	C86.583,14.13,86.795,13.921,87.026,13.483z M75.536,17.938c-1.213-0.887-2.54,0.127-3.319,1.817
	C73.421,19.224,74.738,19.09,75.536,17.938z"/>
<path fill="#000000" d="M183.932,80.924c0.894-1.056,1.057-1.911,0.738-3.532c1.878,0.119,2.69,1.498,1.719,3.203
	c-0.241,0.423-0.445,0.879-0.75,1.253c-1.178,1.444-1.185,3.011-0.516,4.806c0.618-0.234,1.262-0.435,1.867-0.717
	c0.942-0.439,1.821-1.057,2.8-1.359c0.646-0.199,1.421,0.021,2.14,0.054c-0.369,0.632-0.556,1.194-0.94,1.529
	c-0.268,0.233-0.872,0.317-1.211,0.181c-0.698-0.281-1.244-0.01-1.847,0.2c-1.267,0.442-2.54,0.867-3.816,1.28
	c-0.239,0.077-0.506,0.068-0.778,0.101c-0.876-4.186-1.747-8.342-2.639-12.602c-0.689,0.865-2.797,1.139-3.4,0.465
	c-0.27-0.301-0.392-0.89-0.324-1.307c0.153-0.939,0.875-1.514,1.636-2.009c0.261-0.17,0.542-0.308,0.877-0.496
	c-0.226-0.553-0.444-1.073-0.653-1.597c-0.443-1.109-0.278-1.695,0.735-2.322c0.507-0.314,1.078-0.525,1.611-0.8
	c1.02-0.526,2.229-0.647,3.01-1.719c0.23-0.315,1.169-0.113,1.783-0.149c0.05,0.106,0.101,0.212,0.151,0.317
	c-0.724,0.488-1.416,1.035-2.179,1.45c-0.903,0.49-1.876,0.847-2.803,1.295c-0.6,0.29-0.603,0.702-0.407,1.35
	c0.437,1.445,1.197,2.185,2.796,2.027c0.624-0.062,1.308,0.167,1.922,0.383c0.804,0.284,0.865,0.802,0.199,1.315
	c-0.964,0.744-2.02,1.071-3.256,0.545C182.911,76.361,183.408,78.584,183.932,80.924z M179.617,72.904
	c-0.78,0.758-0.984,1.422-0.626,2.319C179.794,74.617,179.66,73.86,179.617,72.904z M182.26,72.328
	c0.696,1.151,1.094,1.225,1.645,0.349C183.384,72.566,182.904,72.465,182.26,72.328z"/>
<path fill="#000000" d="M31.738,50.426c0.758,1.701-0.448,2.277-1.393,3.135c-0.667-1.058-1.432-1.956-1.403-3.222
	c0.018-0.784,0.164-1.587-0.682-2.123c-0.238-0.151-0.338-0.518-0.636-1.008c1.113,0.562,2.019,1.019,2.924,1.478
	c0.486,0.246,0.96,0.519,1.459,0.736c1.029,0.447,1.2,0.328,1.839-0.606c0.626-0.914,1.367-1.75,2.195-2.794
	c-1.298-0.048-2.182-0.474-2.481-1.979c0.862,0.376,1.609,0.62,2.265,1.016c0.472,0.285,0.752,0.362,1.03-0.285
	c-1.041-0.205-1.927-0.743-2.138-1.805c-0.13-0.655-0.013-1.449,0.248-2.074c0.563-1.347,2.05-1.89,3.377-1.268
	c-0.986,1.014-2.284,1.775-2.545,3.283c1.273,0.437,2.425-0.04,2.953-1.188c0.357-0.776,0.724-1.547,1.112-2.374
	c0.774,1.042,1.133,1.931,0.496,3.239c-1.089,2.235-2.375,4.301-3.987,6.181c-0.297,0.346-0.58,0.715-0.809,1.108
	c-0.809,1.382-1.318,1.57-2.797,0.971C32.5,50.739,32.238,50.63,31.738,50.426z M30.207,49.516
	c-0.063,0.046-0.126,0.093-0.189,0.139c0,0.447,0,0.894,0,1.341c0.093,0.022,0.187,0.043,0.28,0.065
	c0.126-0.33,0.323-0.654,0.347-0.991C30.658,49.897,30.363,49.701,30.207,49.516z"/>
<path fill="#000000" d="M20.783,71.472c-0.524-0.318-1.39-0.512-1.507-1.531c-0.099-0.868,0.456-1.942,1.192-2.328
	c0.641-0.335,0.809-0.265,2.395,1.039c0.543-1.268,1.074-2.509,1.668-3.896c-1.714-0.257-3.201-1.108-4.978-1.047
	c-0.569,0.019-1.168-0.808-1.831-1.307c0.793-0.3,1.348-0.51,2.02-0.765c0.111,0.079,0.423,0.194,0.559,0.416
	c0.636,1.039,1.746,1.083,2.738,1.394c1.24,0.389,2.47,0.808,3.689,1.209c-0.643,1.555-1.169,2.944-1.797,4.285
	c-0.236,0.505-0.709,0.899-1.15,1.438c0,0.529-0.007,1.277,0.006,2.024c0.003,0.151,0.045,0.324,0.13,0.445
	c0.113,0.162,0.285,0.281,0.43,0.421c2.032,1.954,1.72,4.277-0.768,5.611c-0.144,0.077-0.382-0.024-0.673-0.05
	c1.585-2.008,1.557-3.319,0.072-5.263c-0.422-0.552-0.986-0.718-1.515-0.483c-1.034,0.459-1.725-0.124-2.488-0.574
	c-0.006-0.091-0.012-0.183-0.018-0.274c0.92-0.076,1.839-0.153,2.889-0.24c0.067-0.371,0.153-0.854,0.24-1.337
	c-0.095-0.065-0.19-0.13-0.285-0.195C21.512,70.75,21.224,71.035,20.783,71.472z"/>
<path fill="#000000" d="M53.678,31.866c-0.992,0.784-1.956,1.543-2.917,2.305c-0.806,0.639-1.633,1.255-2.397,1.941
	c-0.18,0.161-0.211,0.565-0.197,0.852c0.043,0.877,0.255,1.759,0.19,2.624c-0.079,1.047-0.897,1.576-1.841,1.799
	c-0.8,0.189-1.632,0.242-2.45,0.355c-0.047-0.073-0.093-0.147-0.14-0.22c0.156-0.143,0.295-0.383,0.471-0.414
	c2.033-0.355,2.614-1.784,2.561-3.83c-0.166,0.082-0.325,0.126-0.439,0.223c-0.586,0.496-1.222,0.412-1.736-0.009
	c-0.867-0.71-1.436-1.645-1.506-2.799c-0.059-0.972,0.507-1.444,1.405-1.076c0.697,0.286,1.304,0.79,2.043,1.255
	c0.698-0.588,1.496-1.26,2.455-2.068c-1.193-0.353-2.083-0.849-2.051-2.159c1.19,0.019,1.826,0.968,2.663,1.776
	c0.644-0.5,1.289-1.001,2-1.553c-1.152-1.055-2.137-2.327-3.432-3.017c-0.901-0.479-1.13-1.039-1.33-1.816
	c-0.036-0.14,0.014-0.301,0.024-0.453c0.146,0.036,0.291,0.072,0.437,0.107c0.19,0.045,0.394,0.158,0.567,0.122
	c1.01-0.209,1.154,0.507,1.376,1.2c0.109,0.34,0.274,0.702,0.517,0.954c1.114,1.155,2.266,2.272,3.398,3.409
	C53.466,31.49,53.536,31.649,53.678,31.866z M45.826,35.822c-0.024-0.172-0.048-0.344-0.072-0.516
	c-0.369,0.045-0.739,0.089-1.108,0.134c0.038,0.202,0.076,0.404,0.114,0.607C45.115,35.972,45.471,35.897,45.826,35.822z"/>
<path fill="#000000" d="M169.023,44.06c-0.419,0.766-0.839,1.533-1.303,2.38c0.538,1.025,1.281,1.816,2.77,1.491
	c0.714-0.156,1.684-0.168,2.004,0.567c0.19,0.435-0.155,1.321-0.543,1.744c-0.79,0.86-0.698,1.537,0.018,2.317
	c0.242,0.264,0.404,0.601,0.695,1.045c1.081-1.474,2.714-2.192,3.566-3.791c0.258-0.484,1.316-0.542,2.031-0.804
	c-0.114,0.766-0.043,1.409-0.32,1.814c-0.251,0.368-0.878,0.486-1.345,0.701c-0.327,0.151-0.725,0.208-0.986,0.431
	c-1.321,1.133-2.608,2.306-4.014,3.56c-1.23-1.845-2.522-3.41-3.03-5.424c-0.126-0.5-0.349-0.764-0.874-0.989
	c-0.62-0.267-1.103-0.854-1.414-1.111c-1.261,0.006-2.347,0.135-3.383-0.037c-0.516-0.086-1.126-0.634-1.363-1.131
	c-0.346-0.725-0.408-1.589-0.554-2.4c-0.026-0.146,0.122-0.324,0.19-0.487c0.13,0.118,0.348,0.217,0.377,0.356
	c0.157,0.752,0.341,1.599,1.123,1.807c1.111,0.296,2.288,0.4,3.442,0.444c0.271,0.01,0.751-0.512,0.811-0.848
	c0.197-1.105,1.035-1.407,1.853-1.78C168.859,43.963,168.941,44.011,169.023,44.06z"/>
<path fill="#000000" d="M162.032,42.73c-1.226-1.172-2.467-2.358-3.713-3.549c-2.051,1.173-3.911,0.98-4.813-0.517
	c-0.686-1.138-0.862-2.297-0.353-2.629c0.167,0.359,0.263,0.777,0.514,1.053c0.369,0.405,0.818,0.948,1.288,1.008
	c1.033,0.132,2.112,0.075,3.148-0.072c0.309-0.044,0.752-0.633,0.766-0.986c0.045-1.14,0.841-1.581,1.589-2.107
	c0.084,0.034,0.169,0.068,0.253,0.103c-0.297,0.855-0.594,1.709-0.929,2.674c0.807,0.846,1.71,1.794,2.614,2.742
	c0.081-0.013,0.162-0.026,0.243-0.039c-0.07-0.699,0.013-1.463-0.25-2.079c-0.318-0.742-0.314-1.381,0.096-1.986
	c0.53-0.783,1.313-1.015,2.183-0.717c0.914,0.313,1.809,0.681,2.69,1.016c-0.909,2.1-2.1,0.598-3.246,0.316
	C163.707,39.024,164.392,41.438,162.032,42.73z"/>
<path fill="#000000" d="M17.49,87.977c0.93,0.529,1.65,0.985,2.411,1.358c0.774,0.379,1.423,0.075,1.82-0.621
	c0.961-1.685,1.144-3.465,0.422-5.286c-0.204-0.513-0.577-0.925-1.299-0.839c-0.026,0.312-0.052,0.592-0.074,0.874
	c-0.098,1.286-0.969,1.94-2.188,1.486c-0.753-0.28-1.487-0.733-2.086-1.268c-0.64-0.571-0.442-1.242,0.317-1.648
	c1.231-0.659,2.519-0.341,3.795-0.235c0.17,0.014,0.334,0.088,0.504,0.112c2.307,0.329,3.005,0.896,3.128,3.189
	c0.068,1.274-0.189,2.633-0.605,3.849c-0.509,1.49-1.632,2.014-3.088,1.462c-1.066-0.404-1.991-1.187-2.956-1.836
	C17.482,88.501,17.524,88.204,17.49,87.977z"/>
<path fill="#000000" d="M151.163,31.006c0.436,0.387,0.863,0.784,1.31,1.156c0.388,0.323,0.429,0.634,0.082,1.02
	c-0.892,0.992-1.883,1.741-3.307,1.216c-1.007-0.371-2.069-0.693-2.952-1.272c-1-0.656-1.012-1.605-0.335-2.62
	c0.773-1.159,1.94-1.747,3.174-2.243c0.075-0.03,0.192,0.047,0.501,0.132c-0.346,0.221-0.541,0.338-0.728,0.468
	c-0.563,0.389-1.191,0.714-1.669,1.19c-0.696,0.693-0.608,1.383,0.18,1.967c1.113,0.824,2.387,1.194,3.964,1.263
	c-0.469-0.427-0.795-0.746-1.143-1.037c-0.653-0.544-0.511-1.119-0.014-1.628c0.89-0.912,2.062-1.236,3.281-1.252
	c0.378-0.005,0.923,0.341,1.091,0.677c0.136,0.272-0.106,0.812-0.312,1.155c-0.179,0.298-0.541,0.485-0.813,0.713
	c-0.159-0.377-0.225-0.914-0.448-0.989c-0.55-0.186-1.171-0.161-1.764-0.221C151.228,30.802,151.195,30.904,151.163,31.006z"/>
<path fill="#000000" d="M101.684,16.347c-1.403-0.145-1.921-0.66-1.787-2.01c0.076-0.768,0.344-1.564,0.716-2.243
	c0.461-0.84,1.228-0.788,1.77,0.001c0.016,0.024,0.029,0.049,0.044,0.074c1.164,1.854,0.539,5.471-1.176,6.826
	c-0.772,0.61-1.586,0.77-2.461,0.239c-0.61-0.37-1.222-0.742-1.803-1.155c-0.161-0.114-0.213-0.382-0.315-0.579
	c0.207,0.019,0.44-0.019,0.617,0.064C99.162,18.443,100.394,18.124,101.684,16.347z M101.755,14.564
	c0.099-0.158,0.198-0.315,0.297-0.473c-0.305-0.196-0.61-0.392-0.915-0.588c-0.096,0.156-0.291,0.435-0.273,0.449
	C101.145,14.176,101.453,14.367,101.755,14.564z"/>
<path fill="#000000" d="M58.545,22.129c1.093,0.121,1.872,0.134,2.613,0.308c0.885,0.207,1.686,1.475,1.739,2.556
	c0.037,0.755-0.638,1.912-1.449,2.16c-0.407,0.124-0.939-0.097-1.394-0.232c-0.15-0.045-0.29-0.293-0.341-0.474
	C59.334,25.094,58.977,23.735,58.545,22.129z M59.833,23.993c0.046,0.684-0.062,1.368,0.65,1.422
	c0.557,0.043,0.949-0.429,1.136-1.083C61.006,24.215,60.485,24.116,59.833,23.993z"/>
<path fill="#000000" d="M174.214,62.784c0.104,0.206,0.244,0.401,0.307,0.619c0.191,0.666,0.139,1.641,0.57,1.949
	c0.95,0.677,2.122,1.068,3.246,1.455c0.229,0.079,0.803-0.298,0.939-0.593c0.483-1.047,1.388-1.139,2.581-1.281
	c-0.425,0.534-0.663,1.01-1.046,1.282c-1.645,1.168-3.298,2.331-5.501,1.32c-1.177-0.541-1.67-1.16-1.604-2.447
	c0.038-0.738,0.15-1.472,0.229-2.208C174.028,62.848,174.121,62.816,174.214,62.784z"/>
<path fill="#000000" d="M27.807,63.817c-0.245,0.019-0.411,0.081-0.536,0.034c-1.836-0.692-3.64-1.488-5.511-2.066
	c-1.023-0.316-1.481-1.068-2.148-1.808C23.54,60.852,26.901,61.835,27.807,63.817z"/>
<path fill="#000000" d="M94.168,8.393c0.381,2.062,0.832,4.116,1.104,6.192c0.095,0.72-0.239,1.5-0.412,2.245
	c-0.027,0.117-0.24,0.191-0.367,0.285c-0.076-0.123-0.203-0.239-0.221-0.37c-0.266-1.856-0.429-3.731-0.805-5.563
	c-0.214-1.043-0.057-1.904,0.437-2.768C93.992,8.407,94.08,8.4,94.168,8.393z"/>
<path fill="#000000" d="M21.988,80.693c-0.231,0.052-0.421,0.153-0.59,0.125c-1.94-0.324-3.867-0.737-5.817-0.976
	c-0.974-0.119-1.593-0.608-2.265-1.285C16.371,78.567,20.665,78.821,21.988,80.693z"/>
<path fill="#000000" d="M191.96,88.162c-3.062,0.67-5.793,2.342-9.177,1.245c0.314-0.22,0.451-0.384,0.615-0.419
	c1.668-0.358,3.374-0.585,5.001-1.076C189.595,87.551,190.675,87.448,191.96,88.162z"/>
<path fill="#000000" d="M49.944,24.047c1.562,1.773,3.03,3.342,4.368,5.014c0.438,0.547,0.557,1.358,0.78,2.062
	c0.039,0.123-0.133,0.313-0.208,0.473c-0.124-0.096-0.271-0.173-0.367-0.292c-1.053-1.308-2.033-2.682-3.166-3.917
	C50.524,26.486,49.869,25.59,49.944,24.047z"/>
<path fill="#000000" d="M179.448,52.315c-2.016,1.476-3.717,3.403-6.189,4.22c-0.349,0.115-0.727,0.16-1.096,0.188
	c-0.124,0.009-0.259-0.135-0.389-0.209c0.088-0.119,0.152-0.272,0.266-0.352c1.662-1.157,3.298-2.357,5.016-3.427
	c0.659-0.41,1.507-0.516,2.269-0.76C179.367,52.089,179.408,52.202,179.448,52.315z"/>
<path fill="#000000" d="M24.99,59.654c-0.283-0.175-0.495-0.306-0.781-0.483c1.054-1.835,2.086-3.632,3.151-5.486
	c0.268,0.145,0.507,0.275,0.811,0.439C27.113,55.964,26.078,57.763,24.99,59.654z"/>
<path fill="#000000" d="M78.675,20.871c0.398,0.048,0.728,0.088,1.079,0.131c0.131-0.403,0.251-0.771,0.384-1.182
	c0.468,0.128,0.898,0.246,1.412,0.386c-0.136,0.545-0.262,1.05-0.397,1.589c-0.375-0.069-0.672-0.123-1.028-0.188
	c-0.12,0.361-0.232,0.698-0.371,1.113c-0.476-0.105-0.933-0.207-1.458-0.323C78.433,21.847,78.553,21.363,78.675,20.871z"/>
<path fill="#000000" d="M59.364,20.364c-0.417,0.033-0.724,0.058-1.078,0.086c-0.024,0.369-0.045,0.702-0.071,1.101
	c-0.449,0-0.892,0-1.413,0c0-0.464,0-0.958,0-1.518c0.303-0.044,0.629-0.091,1-0.145c0.021-0.371,0.041-0.726,0.064-1.134
	c0.512,0,0.979,0,1.498,0C59.364,19.31,59.364,19.809,59.364,20.364z"/>
<path fill="#000000" d="M26.572,45.357c0.248,0.516,0.467,0.97,0.698,1.45c-0.34,0.197-0.629,0.363-0.963,0.556
	c0.156,0.333,0.296,0.633,0.481,1.028c-0.396,0.214-0.809,0.438-1.315,0.712c-0.24-0.464-0.468-0.905-0.718-1.389
	c0.326-0.214,0.605-0.396,0.95-0.622c-0.159-0.36-0.314-0.712-0.503-1.139C25.664,45.752,26.094,45.565,26.572,45.357z"/>
<path fill="#000000" d="M37.484,48.125c0.496-0.197,0.911-0.362,1.379-0.548c0.21,0.499,0.405,0.964,0.623,1.483
	c-0.328,0.177-0.617,0.332-0.951,0.512c0.116,0.343,0.23,0.684,0.373,1.107c-0.434,0.185-0.861,0.367-1.361,0.579
	c-0.209-0.483-0.398-0.918-0.609-1.404c0.326-0.196,0.633-0.381,0.978-0.588C37.78,48.906,37.652,48.568,37.484,48.125z"/>
<path fill="#000000" d="M15.015,83.159c0.317,0.238,0.587,0.442,0.911,0.686c-0.303,0.404-0.596,0.795-0.912,1.216
	c-0.431-0.325-0.811-0.611-1.224-0.922c0.191-0.326,0.361-0.616,0.559-0.955c-0.301-0.239-0.603-0.48-0.956-0.761
	c0.28-0.384,0.559-0.766,0.871-1.194c0.442,0.329,0.841,0.626,1.286,0.957C15.379,82.499,15.221,82.786,15.015,83.159z"/>
<path fill="#000000" d="M135.131,16.762c0.452-0.353,0.828-0.647,1.271-0.993c0.24,0.277,0.463,0.533,0.736,0.847
	c0.326-0.24,0.633-0.466,0.974-0.716c0.298,0.385,0.575,0.741,0.898,1.159c-0.431,0.349-0.839,0.679-1.275,1.033
	c-0.24-0.28-0.459-0.534-0.708-0.823c-0.319,0.206-0.621,0.4-0.984,0.635C135.752,17.538,135.474,17.191,135.131,16.762z"/>
<path fill="#000000" d="M124.78,21.012c0.327,0.242,0.6,0.444,0.94,0.695c0.238-0.301,0.467-0.59,0.738-0.934
	c0.43,0.41,0.789,0.751,1.132,1.078c-0.381,0.421-0.722,0.797-1.078,1.189c-0.327-0.272-0.587-0.488-0.913-0.759
	c-0.239,0.298-0.471,0.587-0.728,0.907c-0.377-0.407-0.698-0.753-1.062-1.146C124.093,21.741,124.418,21.396,124.78,21.012z"/>
<path fill="#000000" d="M121.167,22.126c-0.385-0.35-0.723-0.657-1.12-1.018c0.358-0.396,0.689-0.763,1.036-1.147
	c0.306,0.231,0.57,0.43,0.869,0.656c0.271-0.287,0.521-0.551,0.839-0.886c0.366,0.315,0.722,0.622,1.14,0.982
	c-0.382,0.412-0.726,0.783-1.113,1.2c-0.295-0.22-0.559-0.417-0.862-0.643C121.709,21.537,121.463,21.804,121.167,22.126z"/>
<path fill="#000000" d="M132.27,14.398c-0.305,0.264-0.558,0.485-0.871,0.756c-0.337-0.353-0.646-0.676-1.036-1.085
	c0.358-0.351,0.697-0.685,1.083-1.063c0.331,0.283,0.6,0.513,0.895,0.765c0.295-0.274,0.561-0.522,0.904-0.841
	c0.331,0.354,0.651,0.696,0.958,1.024c-0.362,0.42-0.709,0.824-1.069,1.242C132.795,14.883,132.532,14.64,132.27,14.398z"/>
<path fill="#000000" d="M178.986,81.925c0.526-2.288,0.339-1.78,1.619-1.526c1.103,0.219,0.319,1.013,0.284,1.507
	C180.845,82.52,180.672,82.514,178.986,81.925z"/>
<path fill="#000000" d="M46.089,27.963c0.127,0.59,0.245,1.137,0.385,1.784c-0.627,0.138-1.222,0.269-1.879,0.413
	c-0.133-0.642-0.246-1.188-0.372-1.797C44.874,28.224,45.45,28.1,46.089,27.963z"/>
<path fill="#000000" d="M160.206,32.323c0.586-0.254,1.075-0.466,1.664-0.721c0.269,0.598,0.516,1.146,0.8,1.776
	c-0.581,0.23-1.101,0.436-1.709,0.676C160.721,33.503,160.488,32.969,160.206,32.323z"/>
<path fill="#000000" d="M184.293,62.591c-0.03,0.617-0.057,1.175-0.088,1.802c-0.585,0-1.137,0-1.749,0c0-0.618,0-1.218,0-1.894
	C183.093,62.53,183.649,62.558,184.293,62.591z"/>
<path fill="#000000" d="M147.298,35.237c-0.32,0.116-0.607,0.219-0.937,0.338c-0.178-0.327-0.353-0.649-0.526-0.969
	c0.877-0.733,0.877-0.733,1.562,0.345c0.27-0.096,0.553-0.196,0.904-0.321c0.191,0.334,0.384,0.671,0.611,1.067
	c-0.365,0.187-0.663,0.34-0.995,0.511C147.704,35.874,147.508,35.567,147.298,35.237z"/>
</svg>
